<svg width="150" height="200" viewBox="0 0 150 200" fill="none" xmlns="http://www.w3.org/2000/svg">
<path d="M121.173 94.7805C132.005 89.2414 138.899 79.3937 137.298 63.0227C135.205 40.6199 116.807 33.1113 92.4351 31.0191V0H73.4789V30.1574C68.5551 30.1574 63.5082 30.2805 58.4617 30.4035V0H39.5055V31.0191C32.5359 31.2297 24.4187 31.127 1.47031 31.0191V51.2059C16.4367 50.941 24.2894 49.9793 26.0887 59.5758V144.509C24.9461 152.123 18.8527 151.027 5.28593 150.787L1.4707 173.312C36.0336 173.312 39.5059 173.436 39.5059 173.436V200H58.4621V173.805C63.6316 173.928 68.6785 173.928 73.4793 173.928V200H92.4355V173.436C124.193 171.712 145.423 163.711 148.254 133.8C150.469 109.798 139.145 99.0883 121.173 94.7805V94.7805ZM58.8312 52.5598C69.5402 52.5598 103.021 49.2367 103.021 71.516C103.021 92.8109 69.5406 90.3488 58.8312 90.3488V52.5598V52.5598ZM58.8312 150.91V109.305C71.6328 109.305 110.834 105.736 110.834 130.108C110.834 153.618 71.6328 150.91 58.8312 150.91Z" fill="#fff"/>
</svg>
