<svg width="200" height="160" viewBox="0 0 200 160" fill="none" xmlns="http://www.w3.org/2000/svg">
<path d="M99.9688 100C117.909 100 132.188 85.45 132.188 67.5C132.188 49.55 117.644 35 99.9688 35C82.0281 35 67.75 49.55 67.75 67.5C67.4688 85.4375 82.0312 100 99.9688 100ZM115.594 110H84.4062C59.875 110 40 128.656 40 151.656C40 156.281 43.9688 160 48.875 160H151.125C156.031 160 160 156.281 160 151.656C160 128.656 140.125 110 115.594 110ZM160 50C173.806 50 185 38.8063 185 25C185 11.1938 173.812 0 160 0C146.194 0 135 11.1938 135 25C135 38.8063 146.188 50 160 50ZM57.4688 67.5C57.4688 65.7972 57.7757 64.1781 57.9716 62.5281C54.5625 60.6562 50.8125 60 46.8438 60H27.525C12.325 60 0 73.0625 0 89.1562C0 92.375 2.46469 95 5.50625 95H67.85C61.4688 87.5625 57.4688 78.0312 57.4688 67.5ZM40 50C53.8063 50 65 38.8063 65 25C65 11.1938 53.8125 0 40 0C26.1938 0 15 11.1938 15 25C15 38.8063 26.1938 50 40 50ZM172.469 60H153.144C149.144 60 145.369 60.9491 141.938 62.575C142.125 64.2188 142.438 65.8125 142.438 67.5C142.438 78.0344 138.444 87.5656 132.075 95H194.481C197.531 95 200 92.375 200 89.1562C200 73.0625 187.688 60 172.469 60Z" fill="#fff"/>
</svg>
