<svg width="200" height="200" viewBox="0 0 200 200" fill="none" xmlns="http://www.w3.org/2000/svg">
<g clip-path="url(#clip0_10_420)">
<path d="M93.75 37.5H118.75C120.408 37.5 121.997 36.8415 123.169 35.6694C124.342 34.4973 125 32.9076 125 31.25V18.75C125 17.0924 124.342 15.5027 123.169 14.3306C121.997 13.1585 120.408 12.5 118.75 12.5H93.75C92.0924 12.5 90.5027 13.1585 89.3306 14.3306C88.1585 15.5027 87.5 17.0924 87.5 18.75V31.25C87.5 32.9076 88.1585 34.4973 89.3306 35.6694C90.5027 36.8415 92.0924 37.5 93.75 37.5ZM93.75 87.5H143.75C145.408 87.5 146.997 86.8415 148.169 85.6694C149.342 84.4973 150 82.9076 150 81.25V68.75C150 67.0924 149.342 65.5027 148.169 64.3306C146.997 63.1585 145.408 62.5 143.75 62.5H93.75C92.0924 62.5 90.5027 63.1585 89.3306 64.3306C88.1585 65.5027 87.5 67.0924 87.5 68.75V81.25C87.5 82.9076 88.1585 84.4973 89.3306 85.6694C90.5027 86.8415 92.0924 87.5 93.75 87.5ZM193.75 162.5H93.75C92.0924 162.5 90.5027 163.158 89.3306 164.331C88.1585 165.503 87.5 167.092 87.5 168.75V181.25C87.5 182.908 88.1585 184.497 89.3306 185.669C90.5027 186.842 92.0924 187.5 93.75 187.5H193.75C195.408 187.5 196.997 186.842 198.169 185.669C199.342 184.497 200 182.908 200 181.25V168.75C200 167.092 199.342 165.503 198.169 164.331C196.997 163.158 195.408 162.5 193.75 162.5ZM93.75 137.5H168.75C170.408 137.5 171.997 136.842 173.169 135.669C174.342 134.497 175 132.908 175 131.25V118.75C175 117.092 174.342 115.503 173.169 114.331C171.997 113.158 170.408 112.5 168.75 112.5H93.75C92.0924 112.5 90.5027 113.158 89.3306 114.331C88.1585 115.503 87.5 117.092 87.5 118.75V131.25C87.5 132.908 88.1585 134.497 89.3306 135.669C90.5027 136.842 92.0924 137.5 93.75 137.5ZM68.75 137.5H50V18.75C50 17.0924 49.3415 15.5027 48.1694 14.3306C46.9973 13.1585 45.4076 12.5 43.75 12.5H31.25C29.5924 12.5 28.0027 13.1585 26.8306 14.3306C25.6585 15.5027 25 17.0924 25 18.75V137.5H6.25C0.707035 137.5 -2.09765 144.234 1.83985 148.168L33.0898 185.668C34.2618 186.839 35.8509 187.497 37.5078 187.497C39.1647 187.497 40.7538 186.839 41.9258 185.668L73.1758 148.168C77.0899 144.242 74.3047 137.5 68.75 137.5Z" fill="#fff"/>
</g>
<defs>
<clipPath id="clip0_10_420">
<rect width="200" height="200" fill="white"/>
</clipPath>
</defs>
</svg>
