<svg width="80" height="18" viewBox="0 0 80 18" fill="none" xmlns="http://www.w3.org/2000/svg">
<path d="M2.085 14C1.925 14 1.785 13.945 1.665 13.835C1.555 13.715 1.5 13.575 1.5 13.415V2.87C1.5 2.7 1.555 2.56 1.665 2.45C1.785 2.34 1.925 2.285 2.085 2.285C2.325 2.285 2.5 2.385 2.61 2.585L7.665 12.635H7.155L12.12 2.585C12.24 2.385 12.415 2.285 12.645 2.285C12.805 2.285 12.94 2.34 13.05 2.45C13.16 2.56 13.215 2.7 13.215 2.87V13.415C13.215 13.575 13.16 13.715 13.05 13.835C12.94 13.945 12.805 14 12.645 14C12.475 14 12.33 13.945 12.21 13.835C12.1 13.715 12.045 13.575 12.045 13.415V4.385L12.3 4.4L7.875 13.445C7.765 13.635 7.595 13.73 7.365 13.73C7.115 13.73 6.935 13.61 6.825 13.37L2.37 4.46L2.67 4.385V13.415C2.67 13.575 2.61 13.715 2.49 13.835C2.38 13.945 2.245 14 2.085 14ZM19.7917 14.075C18.9817 14.075 18.2617 13.9 17.6317 13.55C17.0117 13.19 16.5217 12.695 16.1617 12.065C15.8117 11.435 15.6367 10.715 15.6367 9.905C15.6367 9.085 15.8017 8.365 16.1317 7.745C16.4717 7.115 16.9367 6.62 17.5267 6.26C18.1167 5.9 18.7967 5.72 19.5667 5.72C20.3267 5.72 20.9867 5.895 21.5467 6.245C22.1167 6.585 22.5567 7.06 22.8667 7.67C23.1767 8.28 23.3317 8.975 23.3317 9.755C23.3317 9.915 23.2817 10.045 23.1817 10.145C23.0817 10.235 22.9517 10.28 22.7917 10.28H16.4167V9.32H22.9117L22.2667 9.785C22.2767 9.205 22.1717 8.685 21.9517 8.225C21.7317 7.765 21.4167 7.405 21.0067 7.145C20.6067 6.885 20.1267 6.755 19.5667 6.755C18.9967 6.755 18.4967 6.89 18.0667 7.16C17.6367 7.43 17.3017 7.805 17.0617 8.285C16.8317 8.755 16.7167 9.295 16.7167 9.905C16.7167 10.515 16.8467 11.055 17.1067 11.525C17.3767 11.995 17.7417 12.365 18.2017 12.635C18.6617 12.905 19.1917 13.04 19.7917 13.04C20.1517 13.04 20.5117 12.98 20.8717 12.86C21.2417 12.73 21.5367 12.57 21.7567 12.38C21.8667 12.29 21.9917 12.245 22.1317 12.245C22.2717 12.235 22.3917 12.27 22.4917 12.35C22.6217 12.47 22.6867 12.6 22.6867 12.74C22.6967 12.88 22.6417 13 22.5217 13.1C22.1917 13.38 21.7717 13.615 21.2617 13.805C20.7517 13.985 20.2617 14.075 19.7917 14.075ZM28.4955 14C27.9655 14 27.4905 13.875 27.0705 13.625C26.6605 13.375 26.3355 13.035 26.0955 12.605C25.8555 12.165 25.7355 11.665 25.7355 11.105V3.77C25.7355 3.6 25.7855 3.46 25.8855 3.35C25.9955 3.24 26.1355 3.185 26.3055 3.185C26.4755 3.185 26.6155 3.24 26.7255 3.35C26.8355 3.46 26.8905 3.6 26.8905 3.77V11.105C26.8905 11.615 27.0405 12.035 27.3405 12.365C27.6405 12.685 28.0255 12.845 28.4955 12.845H28.9005C29.0605 12.845 29.1905 12.9 29.2905 13.01C29.3905 13.12 29.4405 13.26 29.4405 13.43C29.4405 13.6 29.3805 13.74 29.2605 13.85C29.1405 13.95 28.9905 14 28.8105 14H28.4955ZM24.7605 7.1C24.6105 7.1 24.4855 7.055 24.3855 6.965C24.2855 6.865 24.2355 6.745 24.2355 6.605C24.2355 6.455 24.2855 6.335 24.3855 6.245C24.4855 6.145 24.6105 6.095 24.7605 6.095H28.5855C28.7355 6.095 28.8605 6.145 28.9605 6.245C29.0605 6.335 29.1105 6.455 29.1105 6.605C29.1105 6.745 29.0605 6.865 28.9605 6.965C28.8605 7.055 28.7355 7.1 28.5855 7.1H24.7605ZM34.9357 14.075C34.1657 14.075 33.4757 13.895 32.8657 13.535C32.2557 13.165 31.7707 12.665 31.4107 12.035C31.0607 11.405 30.8857 10.695 30.8857 9.905C30.8857 9.105 31.0657 8.39 31.4257 7.76C31.7957 7.13 32.2957 6.635 32.9257 6.275C33.5557 5.905 34.2657 5.72 35.0557 5.72C35.8457 5.72 36.5507 5.905 37.1707 6.275C37.8007 6.635 38.2957 7.13 38.6557 7.76C39.0257 8.39 39.2157 9.105 39.2257 9.905L38.7607 10.265C38.7607 10.985 38.5907 11.635 38.2507 12.215C37.9207 12.785 37.4657 13.24 36.8857 13.58C36.3157 13.91 35.6657 14.075 34.9357 14.075ZM35.0557 13.025C35.6357 13.025 36.1507 12.89 36.6007 12.62C37.0607 12.35 37.4207 11.98 37.6807 11.51C37.9507 11.03 38.0857 10.495 38.0857 9.905C38.0857 9.305 37.9507 8.77 37.6807 8.3C37.4207 7.83 37.0607 7.46 36.6007 7.19C36.1507 6.91 35.6357 6.77 35.0557 6.77C34.4857 6.77 33.9707 6.91 33.5107 7.19C33.0507 7.46 32.6857 7.83 32.4157 8.3C32.1457 8.77 32.0107 9.305 32.0107 9.905C32.0107 10.495 32.1457 11.03 32.4157 11.51C32.6857 11.98 33.0507 12.35 33.5107 12.62C33.9707 12.89 34.4857 13.025 35.0557 13.025ZM38.6407 14C38.4707 14 38.3307 13.95 38.2207 13.85C38.1107 13.74 38.0557 13.6 38.0557 13.43V10.865L38.3407 9.68L39.2257 9.905V13.43C39.2257 13.6 39.1707 13.74 39.0607 13.85C38.9507 13.95 38.8107 14 38.6407 14ZM42.2821 14C42.0921 14 41.9321 13.95 41.8021 13.85C41.6821 13.74 41.6221 13.595 41.6221 13.415V2.87C41.6221 2.7 41.6771 2.56 41.7871 2.45C41.8971 2.34 42.0371 2.285 42.2071 2.285H45.8521C46.4521 2.285 46.9921 2.415 47.4721 2.675C47.9621 2.925 48.3471 3.27 48.6271 3.71C48.9171 4.15 49.0621 4.66 49.0621 5.24C49.0621 5.78 48.9171 6.26 48.6271 6.68C48.3371 7.1 47.9571 7.42 47.4871 7.64C48.1571 7.82 48.6971 8.16 49.1071 8.66C49.5171 9.15 49.7221 9.775 49.7221 10.535C49.7221 11.215 49.5671 11.815 49.2571 12.335C48.9471 12.855 48.5171 13.265 47.9671 13.565C47.4271 13.855 46.8071 14 46.1071 14H42.2821ZM42.7921 12.875H46.1071C46.5871 12.875 47.0121 12.78 47.3821 12.59C47.7521 12.4 48.0421 12.13 48.2521 11.78C48.4621 11.43 48.5671 11.015 48.5671 10.535C48.5671 10.085 48.4621 9.695 48.2521 9.365C48.0421 9.025 47.7521 8.765 47.3821 8.585C47.0121 8.395 46.5871 8.3 46.1071 8.3H42.7921V12.875ZM42.7921 7.175H45.8521C46.4521 7.175 46.9471 7.005 47.3371 6.665C47.7271 6.325 47.9221 5.85 47.9221 5.24C47.9221 4.64 47.7271 4.185 47.3371 3.875C46.9471 3.565 46.4521 3.41 45.8521 3.41H42.7921V7.175ZM55.5168 14.075C54.7468 14.075 54.0568 13.895 53.4468 13.535C52.8368 13.165 52.3518 12.665 51.9918 12.035C51.6418 11.405 51.4668 10.695 51.4668 9.905C51.4668 9.105 51.6468 8.39 52.0068 7.76C52.3768 7.13 52.8768 6.635 53.5068 6.275C54.1368 5.905 54.8468 5.72 55.6368 5.72C56.4268 5.72 57.1318 5.905 57.7518 6.275C58.3818 6.635 58.8768 7.13 59.2368 7.76C59.6068 8.39 59.7968 9.105 59.8068 9.905L59.3418 10.265C59.3418 10.985 59.1718 11.635 58.8318 12.215C58.5018 12.785 58.0468 13.24 57.4668 13.58C56.8968 13.91 56.2468 14.075 55.5168 14.075ZM55.6368 13.025C56.2168 13.025 56.7318 12.89 57.1818 12.62C57.6418 12.35 58.0018 11.98 58.2618 11.51C58.5318 11.03 58.6668 10.495 58.6668 9.905C58.6668 9.305 58.5318 8.77 58.2618 8.3C58.0018 7.83 57.6418 7.46 57.1818 7.19C56.7318 6.91 56.2168 6.77 55.6368 6.77C55.0668 6.77 54.5518 6.91 54.0918 7.19C53.6318 7.46 53.2668 7.83 52.9968 8.3C52.7268 8.77 52.5918 9.305 52.5918 9.905C52.5918 10.495 52.7268 11.03 52.9968 11.51C53.2668 11.98 53.6318 12.35 54.0918 12.62C54.5518 12.89 55.0668 13.025 55.6368 13.025ZM59.2218 14C59.0518 14 58.9118 13.95 58.8018 13.85C58.6918 13.74 58.6368 13.6 58.6368 13.43V10.865L58.9218 9.68L59.8068 9.905V13.43C59.8068 13.6 59.7518 13.74 59.6418 13.85C59.5318 13.95 59.3918 14 59.2218 14ZM66.2081 14.075C65.4281 14.075 64.7231 13.895 64.0931 13.535C63.4731 13.175 62.9781 12.685 62.6081 12.065C62.2481 11.435 62.0631 10.73 62.0531 9.95V2.87C62.0531 2.69 62.1031 2.55 62.2031 2.45C62.3131 2.34 62.4581 2.285 62.6381 2.285C62.8081 2.285 62.9431 2.34 63.0431 2.45C63.1531 2.55 63.2081 2.69 63.2081 2.87V7.28C63.5381 6.81 63.9731 6.435 64.5131 6.155C65.0631 5.865 65.6731 5.72 66.3431 5.72C67.1131 5.72 67.8031 5.905 68.4131 6.275C69.0231 6.635 69.5031 7.13 69.8531 7.76C70.2131 8.39 70.3931 9.1 70.3931 9.89C70.3931 10.69 70.2081 11.405 69.8381 12.035C69.4781 12.665 68.9831 13.165 68.3531 13.535C67.7231 13.895 67.0081 14.075 66.2081 14.075ZM66.2081 13.025C66.7881 13.025 67.3081 12.89 67.7681 12.62C68.2281 12.34 68.5881 11.965 68.8481 11.495C69.1181 11.025 69.2531 10.49 69.2531 9.89C69.2531 9.3 69.1181 8.77 68.8481 8.3C68.5881 7.82 68.2281 7.445 67.7681 7.175C67.3081 6.905 66.7881 6.77 66.2081 6.77C65.6381 6.77 65.1231 6.905 64.6631 7.175C64.2031 7.445 63.8431 7.82 63.5831 8.3C63.3231 8.77 63.1931 9.3 63.1931 9.89C63.1931 10.49 63.3231 11.025 63.5831 11.495C63.8431 11.965 64.2031 12.34 64.6631 12.62C65.1231 12.89 65.6381 13.025 66.2081 13.025ZM73.6145 17.57C73.5345 17.57 73.4445 17.55 73.3445 17.51C73.0045 17.36 72.9095 17.12 73.0595 16.79L77.9045 6.11C78.0545 5.79 78.2945 5.7 78.6245 5.84C78.9645 5.98 79.0595 6.215 78.9095 6.545L74.0495 17.225C73.9495 17.455 73.8045 17.57 73.6145 17.57ZM75.2795 13.745C75.1295 13.815 74.9895 13.83 74.8595 13.79C74.7295 13.74 74.6245 13.64 74.5445 13.49L71.1995 6.56C71.1295 6.41 71.1195 6.27 71.1695 6.14C71.2195 6.01 71.3195 5.91 71.4695 5.84C71.6195 5.77 71.7595 5.76 71.8895 5.81C72.0195 5.85 72.1195 5.945 72.1895 6.095L75.4745 13.025C75.5545 13.175 75.5795 13.315 75.5495 13.445C75.5195 13.575 75.4295 13.675 75.2795 13.745Z" fill="white"/>
</svg>
