<svg width="60" height="18" viewBox="0 0 60 18" fill="none" xmlns="http://www.w3.org/2000/svg">
<g clip-path="url(#clip0_2_17)">
<path d="M6.765 11.5074C5.955 11.5074 5.195 11.3524 4.485 11.0424C3.785 10.7324 3.165 10.3024 2.625 9.75241C2.095 9.19241 1.68 8.55241 1.38 7.83241C1.08 7.10241 0.93 6.32241 0.93 5.49241C0.93 4.67241 1.075 3.90241 1.365 3.18241C1.665 2.45241 2.08 1.81241 2.61 1.26241C3.15 0.712406 3.77 0.282406 4.47 -0.0275943C5.18 -0.347594 5.945 -0.507594 6.765 -0.507594C7.485 -0.507594 8.14 -0.402594 8.73 -0.192594C9.32 0.0174063 9.89 0.352406 10.44 0.812406C10.53 0.882406 10.58 0.967406 10.59 1.06741C10.61 1.15741 10.6 1.24741 10.56 1.33741C10.52 1.41741 10.46 1.47741 10.38 1.51741C10.36 1.59741 10.31 1.65741 10.23 1.69741C10.15 1.73741 10.055 1.75241 9.945 1.74241C9.845 1.73241 9.745 1.68741 9.645 1.60741C9.255 1.26741 8.83 1.01741 8.37 0.857406C7.91 0.687406 7.375 0.602407 6.765 0.602407C6.115 0.602407 5.505 0.732406 4.935 0.992406C4.375 1.25241 3.88 1.60741 3.45 2.05741C3.02 2.50741 2.68 3.02741 2.43 3.61741C2.19 4.20741 2.07 4.83241 2.07 5.49241C2.07 6.17241 2.19 6.80741 2.43 7.39741C2.68 7.98741 3.02 8.50741 3.45 8.95741C3.88 9.40741 4.375 9.76241 4.935 10.0224C5.505 10.2724 6.115 10.3974 6.765 10.3974C7.315 10.3974 7.835 10.3074 8.325 10.1274C8.815 9.94741 9.28 9.68741 9.72 9.34741C9.84 9.24741 9.965 9.20741 10.095 9.22741C10.235 9.24741 10.355 9.30741 10.455 9.40741C10.555 9.50741 10.605 9.63741 10.605 9.79741C10.605 9.87741 10.595 9.95241 10.575 10.0224C10.555 10.0824 10.51 10.1474 10.44 10.2174C9.93 10.6874 9.36 11.0224 8.73 11.2224C8.1 11.4124 7.445 11.5074 6.765 11.5074ZM10.605 9.79741L9.465 9.55741V6.54241H7.125C6.955 6.54241 6.815 6.49241 6.705 6.39241C6.595 6.29241 6.54 6.16741 6.54 6.01741C6.54 5.86741 6.595 5.74741 6.705 5.65741C6.815 5.55741 6.955 5.50741 7.125 5.50741H10.02C10.19 5.50741 10.33 5.56241 10.44 5.67241C10.55 5.77241 10.605 5.90741 10.605 6.07741V9.79741ZM15.8781 11.4324C15.1081 11.4324 14.4181 11.2524 13.8081 10.8924C13.1981 10.5224 12.7131 10.0224 12.3531 9.39241C12.0031 8.76241 11.8281 8.05241 11.8281 7.26241C11.8281 6.46241 12.0081 5.74741 12.3681 5.11741C12.7381 4.48741 13.2381 3.99241 13.8681 3.63241C14.4981 3.26241 15.2081 3.07741 15.9981 3.07741C16.7881 3.07741 17.4931 3.26241 18.1131 3.63241C18.7431 3.99241 19.2381 4.48741 19.5981 5.11741C19.9681 5.74741 20.1581 6.46241 20.1681 7.26241L19.7031 7.62241C19.7031 8.34241 19.5331 8.99241 19.1931 9.57241C18.8631 10.1424 18.4081 10.5974 17.8281 10.9374C17.2581 11.2674 16.6081 11.4324 15.8781 11.4324ZM15.9981 10.3824C16.5781 10.3824 17.0931 10.2474 17.5431 9.97741C18.0031 9.70741 18.3631 9.33741 18.6231 8.86741C18.8931 8.38741 19.0281 7.85241 19.0281 7.26241C19.0281 6.66241 18.8931 6.12741 18.6231 5.65741C18.3631 5.18741 18.0031 4.81741 17.5431 4.54741C17.0931 4.26741 16.5781 4.12741 15.9981 4.12741C15.4281 4.12741 14.9131 4.26741 14.4531 4.54741C13.9931 4.81741 13.6281 5.18741 13.3581 5.65741C13.0881 6.12741 12.9531 6.66241 12.9531 7.26241C12.9531 7.85241 13.0881 8.38741 13.3581 8.86741C13.6281 9.33741 13.9931 9.70741 14.4531 9.97741C14.9131 10.2474 15.4281 10.3824 15.9981 10.3824ZM19.5831 11.3574C19.4131 11.3574 19.2731 11.3074 19.1631 11.2074C19.0531 11.0974 18.9981 10.9574 18.9981 10.7874V8.22241L19.2831 7.03741L20.1681 7.26241V10.7874C20.1681 10.9574 20.1131 11.0974 20.0031 11.2074C19.8931 11.3074 19.7531 11.3574 19.5831 11.3574ZM33.4995 11.3574C33.3295 11.3574 33.1895 11.3074 33.0795 11.2074C32.9695 11.0974 32.9145 10.9574 32.9145 10.7874V6.46741C32.9145 5.75741 32.7295 5.19741 32.3595 4.78741C31.9895 4.36741 31.5145 4.15741 30.9345 4.15741C30.3145 4.15741 29.8045 4.36741 29.4045 4.78741C29.0145 5.19741 28.8245 5.74741 28.8345 6.43741H27.7995C27.8095 5.76741 27.9545 5.17741 28.2345 4.66741C28.5145 4.15741 28.8995 3.76241 29.3895 3.48241C29.8795 3.20241 30.4345 3.06241 31.0545 3.06241C31.6445 3.06241 32.1645 3.20241 32.6145 3.48241C33.0745 3.76241 33.4295 4.15741 33.6795 4.66741C33.9395 5.17741 34.0695 5.77741 34.0695 6.46741V10.7874C34.0695 10.9574 34.0145 11.0974 33.9045 11.2074C33.8045 11.3074 33.6695 11.3574 33.4995 11.3574ZM22.9995 11.3574C22.8195 11.3574 22.6745 11.3074 22.5645 11.2074C22.4645 11.0974 22.4145 10.9574 22.4145 10.7874V3.73741C22.4145 3.56741 22.4645 3.42741 22.5645 3.31741C22.6745 3.20741 22.8195 3.15241 22.9995 3.15241C23.1695 3.15241 23.3045 3.20741 23.4045 3.31741C23.5145 3.42741 23.5695 3.56741 23.5695 3.73741V10.7874C23.5695 10.9574 23.5145 11.0974 23.4045 11.2074C23.3045 11.3074 23.1695 11.3574 22.9995 11.3574ZM28.2645 11.3574C28.0945 11.3574 27.9545 11.3074 27.8445 11.2074C27.7345 11.0974 27.6795 10.9574 27.6795 10.7874V6.46741C27.6795 5.75741 27.4945 5.19741 27.1245 4.78741C26.7545 4.36741 26.2795 4.15741 25.6995 4.15741C25.0795 4.15741 24.5695 4.36241 24.1695 4.77241C23.7695 5.17241 23.5695 5.69741 23.5695 6.34741H22.7445C22.7645 5.70741 22.9045 5.14241 23.1645 4.65241C23.4345 4.15241 23.7995 3.76241 24.2595 3.48241C24.7195 3.20241 25.2395 3.06241 25.8195 3.06241C26.4095 3.06241 26.9295 3.20241 27.3795 3.48241C27.8395 3.76241 28.1945 4.15741 28.4445 4.66741C28.7045 5.17741 28.8345 5.77741 28.8345 6.46741V10.7874C28.8345 10.9574 28.7795 11.0974 28.6695 11.2074C28.5695 11.3074 28.4345 11.3574 28.2645 11.3574ZM40.3434 11.4324C39.5334 11.4324 38.8134 11.2574 38.1834 10.9074C37.5634 10.5474 37.0734 10.0524 36.7134 9.42241C36.3634 8.79241 36.1884 8.07241 36.1884 7.26241C36.1884 6.44241 36.3534 5.72241 36.6834 5.10241C37.0234 4.47241 37.4884 3.97741 38.0784 3.61741C38.6684 3.25741 39.3484 3.07741 40.1184 3.07741C40.8784 3.07741 41.5384 3.25241 42.0984 3.60241C42.6684 3.94241 43.1084 4.41741 43.4184 5.02741C43.7284 5.63741 43.8834 6.33241 43.8834 7.11241C43.8834 7.27241 43.8334 7.40241 43.7334 7.50241C43.6334 7.59241 43.5034 7.63741 43.3434 7.63741H36.9684V6.67741H43.4634L42.8184 7.14241C42.8284 6.56241 42.7234 6.04241 42.5034 5.58241C42.2834 5.12241 41.9684 4.76241 41.5584 4.50241C41.1584 4.24241 40.6784 4.11241 40.1184 4.11241C39.5484 4.11241 39.0484 4.24741 38.6184 4.51741C38.1884 4.78741 37.8534 5.16241 37.6134 5.64241C37.3834 6.11241 37.2684 6.65241 37.2684 7.26241C37.2684 7.87241 37.3984 8.41241 37.6584 8.88241C37.9284 9.35241 38.2934 9.72241 38.7534 9.99241C39.2134 10.2624 39.7434 10.3974 40.3434 10.3974C40.7034 10.3974 41.0634 10.3374 41.4234 10.2174C41.7934 10.0874 42.0884 9.92741 42.3084 9.73741C42.4184 9.64741 42.5434 9.60241 42.6834 9.60241C42.8234 9.59241 42.9434 9.62741 43.0434 9.70741C43.1734 9.82741 43.2384 9.95741 43.2384 10.0974C43.2484 10.2374 43.1934 10.3574 43.0734 10.4574C42.7434 10.7374 42.3234 10.9724 41.8134 11.1624C41.3034 11.3424 40.8134 11.4324 40.3434 11.4324ZM46.3173 6.30241C46.3473 5.68241 46.5073 5.12741 46.7973 4.63741C47.0973 4.14741 47.4823 3.76241 47.9523 3.48241C48.4323 3.20241 48.9623 3.06241 49.5423 3.06241C50.0023 3.06241 50.3573 3.12741 50.6073 3.25741C50.8573 3.38741 50.9523 3.57741 50.8923 3.82741C50.8523 3.97741 50.7823 4.07741 50.6823 4.12741C50.5923 4.17741 50.4773 4.19741 50.3373 4.18741C50.2073 4.17741 50.0573 4.16741 49.8873 4.15741C49.3273 4.10741 48.8273 4.16741 48.3873 4.33741C47.9573 4.49741 47.6123 4.74741 47.3523 5.08741C47.1023 5.42741 46.9773 5.83241 46.9773 6.30241H46.3173ZM46.4073 11.3574C46.2273 11.3574 46.0873 11.3074 45.9873 11.2074C45.8873 11.1074 45.8373 10.9674 45.8373 10.7874V3.72241C45.8373 3.54241 45.8873 3.40241 45.9873 3.30241C46.0873 3.20241 46.2273 3.15241 46.4073 3.15241C46.5873 3.15241 46.7273 3.20241 46.8273 3.30241C46.9273 3.40241 46.9773 3.54241 46.9773 3.72241V10.7874C46.9773 10.9674 46.9273 11.1074 46.8273 11.2074C46.7273 11.3074 46.5873 11.3574 46.4073 11.3574ZM55.5724 11.4324C54.9824 11.4324 54.3974 11.3324 53.8174 11.1324C53.2374 10.9324 52.7674 10.6324 52.4074 10.2324C52.2974 10.1124 52.2524 9.97741 52.2724 9.82741C52.2924 9.67741 52.3674 9.54741 52.4974 9.43741C52.6374 9.33741 52.7824 9.29741 52.9324 9.31741C53.0824 9.33741 53.2074 9.40241 53.3074 9.51241C53.5474 9.79241 53.8624 10.0074 54.2524 10.1574C54.6524 10.3074 55.0924 10.3824 55.5724 10.3824C56.3124 10.3824 56.8474 10.2574 57.1774 10.0074C57.5074 9.74741 57.6774 9.43741 57.6874 9.07741C57.6874 8.71741 57.5174 8.42241 57.1774 8.19241C56.8374 7.95241 56.2774 7.76741 55.4974 7.63741C54.4874 7.47741 53.7474 7.19741 53.2774 6.79741C52.8074 6.39741 52.5724 5.92241 52.5724 5.37241C52.5724 4.86241 52.7074 4.43741 52.9774 4.09741C53.2474 3.75741 53.6074 3.50241 54.0574 3.33241C54.5074 3.16241 55.0024 3.07741 55.5424 3.07741C56.2124 3.07741 56.7874 3.19241 57.2674 3.42241C57.7574 3.65241 58.1524 3.96241 58.4524 4.35241C58.5524 4.48241 58.5924 4.61741 58.5724 4.75741C58.5524 4.89741 58.4724 5.01241 58.3324 5.10241C58.2124 5.17241 58.0724 5.19741 57.9124 5.17741C57.7624 5.14741 57.6324 5.07241 57.5224 4.95241C57.2724 4.66241 56.9824 4.45241 56.6524 4.32241C56.3224 4.18241 55.9424 4.11241 55.5124 4.11241C54.9624 4.11241 54.5224 4.22741 54.1924 4.45741C53.8624 4.67741 53.6974 4.95741 53.6974 5.29741C53.6974 5.52741 53.7574 5.72741 53.8774 5.89741C54.0074 6.06741 54.2224 6.21741 54.5224 6.34741C54.8324 6.47741 55.2624 6.58741 55.8124 6.67741C56.5624 6.79741 57.1524 6.97741 57.5824 7.21741C58.0224 7.44741 58.3324 7.72241 58.5124 8.04241C58.7024 8.35241 58.7974 8.69241 58.7974 9.06241C58.7974 9.53241 58.6574 9.94741 58.3774 10.3074C58.1074 10.6574 57.7274 10.9324 57.2374 11.1324C56.7574 11.3324 56.2024 11.4324 55.5724 11.4324Z" fill="white"/>
</g>
<defs>
<clipPath id="clip0_2_17">
<rect width="60" height="17.692" fill="white"/>
</clipPath>
</defs>
</svg>
