<svg width="134" height="18" viewBox="0 0 134 18" fill="none" xmlns="http://www.w3.org/2000/svg">
<g clip-path="url(#clip0_2_13)">
<path d="M2.085 11C1.915 11 1.775 10.945 1.665 10.835C1.555 10.725 1.5 10.585 1.5 10.415V-0.130001C1.5 -0.300001 1.555 -0.440001 1.665 -0.550001C1.775 -0.66 1.915 -0.715 2.085 -0.715C2.255 -0.715 2.395 -0.66 2.505 -0.550001C2.615 -0.440001 2.67 -0.300001 2.67 -0.130001V10.415C2.67 10.585 2.615 10.725 2.505 10.835C2.395 10.945 2.255 11 2.085 11ZM12.5598 11C12.3898 11 12.2498 10.945 12.1398 10.835C12.0298 10.725 11.9748 10.59 11.9748 10.43V6.53C11.9748 5.91 11.8548 5.4 11.6148 5C11.3848 4.6 11.0648 4.3 10.6548 4.1C10.2548 3.9 9.7998 3.8 9.2898 3.8C8.79981 3.8 8.3548 3.895 7.9548 4.085C7.5648 4.275 7.2548 4.535 7.0248 4.865C6.7948 5.195 6.6798 5.57 6.6798 5.99H5.8548C5.8748 5.36 6.0448 4.8 6.3648 4.31C6.6848 3.81 7.1098 3.42 7.6398 3.14C8.1698 2.85 8.7598 2.705 9.4098 2.705C10.1198 2.705 10.7548 2.855 11.3148 3.155C11.8748 3.445 12.3148 3.875 12.6348 4.445C12.9648 5.015 13.1298 5.71 13.1298 6.53V10.43C13.1298 10.59 13.0748 10.725 12.9648 10.835C12.8548 10.945 12.7198 11 12.5598 11ZM6.1098 11C5.9298 11 5.7848 10.95 5.6748 10.85C5.5748 10.74 5.5248 10.6 5.5248 10.43V3.38C5.5248 3.2 5.5748 3.06 5.6748 2.96C5.7848 2.85 5.9298 2.795 6.1098 2.795C6.2798 2.795 6.4148 2.85 6.5148 2.96C6.6248 3.06 6.6798 3.2 6.6798 3.38V10.43C6.6798 10.6 6.6248 10.74 6.5148 10.85C6.4148 10.95 6.2798 11 6.1098 11ZM15.4662 7.475C15.3062 7.475 15.1712 7.42 15.0612 7.31C14.9512 7.2 14.8962 7.065 14.8962 6.905C14.8962 6.735 14.9512 6.595 15.0612 6.485C15.1712 6.375 15.3062 6.32 15.4662 6.32H18.9912C19.1612 6.32 19.3012 6.375 19.4112 6.485C19.5212 6.595 19.5762 6.735 19.5762 6.905C19.5762 7.065 19.5212 7.2 19.4112 7.31C19.3012 7.42 19.1612 7.475 18.9912 7.475H15.4662ZM26.4964 11.15C25.6864 11.15 24.9264 10.995 24.2164 10.685C23.5164 10.375 22.8964 9.945 22.3564 9.395C21.8264 8.835 21.4114 8.195 21.1114 7.475C20.8114 6.745 20.6614 5.965 20.6614 5.135C20.6614 4.315 20.8064 3.545 21.0964 2.825C21.3964 2.095 21.8114 1.455 22.3414 0.904999C22.8814 0.354999 23.5014 -0.0750008 24.2014 -0.385001C24.9114 -0.705 25.6764 -0.865 26.4964 -0.865C27.2164 -0.865 27.8714 -0.76 28.4614 -0.550001C29.0514 -0.34 29.6214 -0.00500017 30.1714 0.455C30.2614 0.525 30.3114 0.609999 30.3214 0.709999C30.3414 0.799999 30.3314 0.889999 30.2914 0.979999C30.2514 1.06 30.1914 1.12 30.1114 1.16C30.0914 1.24 30.0414 1.3 29.9614 1.34C29.8814 1.38 29.7864 1.395 29.6764 1.385C29.5764 1.375 29.4764 1.33 29.3764 1.25C28.9864 0.91 28.5614 0.66 28.1014 0.499999C27.6414 0.33 27.1064 0.245 26.4964 0.245C25.8464 0.245 25.2364 0.375 24.6664 0.634999C24.1064 0.895 23.6114 1.25 23.1814 1.7C22.7514 2.15 22.4114 2.67 22.1614 3.26C21.9214 3.85 21.8014 4.475 21.8014 5.135C21.8014 5.815 21.9214 6.45 22.1614 7.04C22.4114 7.63 22.7514 8.15 23.1814 8.6C23.6114 9.05 24.1064 9.405 24.6664 9.665C25.2364 9.915 25.8464 10.04 26.4964 10.04C27.0464 10.04 27.5664 9.95 28.0564 9.77C28.5464 9.59 29.0114 9.33 29.4514 8.99C29.5714 8.89 29.6964 8.85 29.8264 8.87C29.9664 8.89 30.0864 8.95 30.1864 9.05C30.2864 9.15 30.3364 9.28 30.3364 9.44C30.3364 9.52 30.3264 9.595 30.3064 9.665C30.2864 9.725 30.2414 9.79 30.1714 9.86C29.6614 10.33 29.0914 10.665 28.4614 10.865C27.8314 11.055 27.1764 11.15 26.4964 11.15ZM30.3364 9.44L29.1964 9.2V6.185H26.8564C26.6864 6.185 26.5464 6.135 26.4364 6.035C26.3264 5.935 26.2714 5.81 26.2714 5.66C26.2714 5.51 26.3264 5.39 26.4364 5.3C26.5464 5.2 26.6864 5.15 26.8564 5.15H29.7514C29.9214 5.15 30.0614 5.205 30.1714 5.315C30.2814 5.415 30.3364 5.55 30.3364 5.72V9.44ZM35.6095 11.075C34.8395 11.075 34.1495 10.895 33.5395 10.535C32.9295 10.165 32.4445 9.665 32.0845 9.035C31.7345 8.405 31.5595 7.695 31.5595 6.905C31.5595 6.105 31.7395 5.39 32.0995 4.76C32.4695 4.13 32.9695 3.635 33.5995 3.275C34.2295 2.905 34.9395 2.72 35.7295 2.72C36.5195 2.72 37.2245 2.905 37.8445 3.275C38.4745 3.635 38.9695 4.13 39.3295 4.76C39.6995 5.39 39.8895 6.105 39.8995 6.905L39.4345 7.265C39.4345 7.985 39.2645 8.635 38.9245 9.215C38.5945 9.785 38.1395 10.24 37.5595 10.58C36.9895 10.91 36.3395 11.075 35.6095 11.075ZM35.7295 10.025C36.3095 10.025 36.8245 9.89 37.2745 9.62C37.7345 9.35 38.0945 8.98 38.3545 8.51C38.6245 8.03 38.7595 7.495 38.7595 6.905C38.7595 6.305 38.6245 5.77 38.3545 5.3C38.0945 4.83 37.7345 4.46 37.2745 4.19C36.8245 3.91 36.3095 3.77 35.7295 3.77C35.1595 3.77 34.6445 3.91 34.1845 4.19C33.7245 4.46 33.3595 4.83 33.0895 5.3C32.8195 5.77 32.6845 6.305 32.6845 6.905C32.6845 7.495 32.8195 8.03 33.0895 8.51C33.3595 8.98 33.7245 9.35 34.1845 9.62C34.6445 9.89 35.1595 10.025 35.7295 10.025ZM39.3145 11C39.1445 11 39.0045 10.95 38.8945 10.85C38.7845 10.74 38.7295 10.6 38.7295 10.43V7.865L39.0145 6.68L39.8995 6.905V10.43C39.8995 10.6 39.8445 10.74 39.7345 10.85C39.6245 10.95 39.4845 11 39.3145 11ZM53.2309 11C53.0609 11 52.9209 10.95 52.8109 10.85C52.7009 10.74 52.6459 10.6 52.6459 10.43V6.11C52.6459 5.4 52.4609 4.84 52.0909 4.43C51.7209 4.01 51.2459 3.8 50.6659 3.8C50.0459 3.8 49.5359 4.01 49.1359 4.43C48.7459 4.84 48.5559 5.39 48.5659 6.08H47.5309C47.5409 5.41 47.6859 4.82 47.9659 4.31C48.2459 3.8 48.6309 3.405 49.1209 3.125C49.6109 2.845 50.1659 2.705 50.7859 2.705C51.3759 2.705 51.8959 2.845 52.3459 3.125C52.8059 3.405 53.1609 3.8 53.4109 4.31C53.6709 4.82 53.8009 5.42 53.8009 6.11V10.43C53.8009 10.6 53.7459 10.74 53.6359 10.85C53.5359 10.95 53.4009 11 53.2309 11ZM42.7309 11C42.5509 11 42.4059 10.95 42.2959 10.85C42.1959 10.74 42.1459 10.6 42.1459 10.43V3.38C42.1459 3.21 42.1959 3.07 42.2959 2.96C42.4059 2.85 42.5509 2.795 42.7309 2.795C42.9009 2.795 43.0359 2.85 43.1359 2.96C43.2459 3.07 43.3009 3.21 43.3009 3.38V10.43C43.3009 10.6 43.2459 10.74 43.1359 10.85C43.0359 10.95 42.9009 11 42.7309 11ZM47.9959 11C47.8259 11 47.6859 10.95 47.5759 10.85C47.4659 10.74 47.4109 10.6 47.4109 10.43V6.11C47.4109 5.4 47.2259 4.84 46.8559 4.43C46.4859 4.01 46.0109 3.8 45.4309 3.8C44.8109 3.8 44.3009 4.005 43.9009 4.415C43.5009 4.815 43.3009 5.34 43.3009 5.99H42.4759C42.4959 5.35 42.6359 4.785 42.8959 4.295C43.1659 3.795 43.5309 3.405 43.9909 3.125C44.4509 2.845 44.9709 2.705 45.5509 2.705C46.1409 2.705 46.6609 2.845 47.1109 3.125C47.5709 3.405 47.9259 3.8 48.1759 4.31C48.4359 4.82 48.5659 5.42 48.5659 6.11V10.43C48.5659 10.6 48.5109 10.74 48.4009 10.85C48.3009 10.95 48.1659 11 47.9959 11ZM60.0749 11.075C59.2649 11.075 58.5449 10.9 57.9149 10.55C57.2949 10.19 56.8049 9.695 56.4449 9.065C56.0949 8.435 55.9199 7.715 55.9199 6.905C55.9199 6.085 56.0849 5.365 56.4149 4.745C56.7549 4.115 57.2199 3.62 57.8099 3.26C58.3999 2.9 59.0799 2.72 59.8499 2.72C60.6099 2.72 61.2699 2.895 61.8299 3.245C62.3999 3.585 62.8399 4.06 63.1499 4.67C63.4599 5.28 63.6149 5.975 63.6149 6.755C63.6149 6.915 63.5649 7.045 63.4649 7.145C63.3649 7.235 63.2349 7.28 63.0749 7.28H56.6999V6.32H63.1949L62.5499 6.785C62.5599 6.205 62.4549 5.685 62.2349 5.225C62.0149 4.765 61.6999 4.405 61.2899 4.145C60.8899 3.885 60.4099 3.755 59.8499 3.755C59.2799 3.755 58.7799 3.89 58.3499 4.16C57.9199 4.43 57.5849 4.805 57.3449 5.285C57.1149 5.755 56.9999 6.295 56.9999 6.905C56.9999 7.515 57.1299 8.055 57.3899 8.525C57.6599 8.995 58.0249 9.365 58.4849 9.635C58.9449 9.905 59.4749 10.04 60.0749 10.04C60.4349 10.04 60.7949 9.98 61.1549 9.86C61.5249 9.73 61.8199 9.57 62.0399 9.38C62.1499 9.29 62.2749 9.245 62.4149 9.245C62.5549 9.235 62.6749 9.27 62.7749 9.35C62.9049 9.47 62.9699 9.6 62.9699 9.74C62.9799 9.88 62.9249 10 62.8049 10.1C62.4749 10.38 62.0549 10.615 61.5449 10.805C61.0349 10.985 60.5449 11.075 60.0749 11.075ZM70.6983 11C70.5283 11 70.3883 10.945 70.2783 10.835C70.1683 10.725 70.1133 10.585 70.1133 10.415V-0.130001C70.1133 -0.300001 70.1683 -0.440001 70.2783 -0.550001C70.3883 -0.66 70.5283 -0.715 70.6983 -0.715C70.8683 -0.715 71.0083 -0.66 71.1183 -0.550001C71.2283 -0.440001 71.2833 -0.300001 71.2833 -0.130001V10.415C71.2833 10.585 71.2283 10.725 71.1183 10.835C71.0083 10.945 70.8683 11 70.6983 11ZM77.3481 11C76.8181 11 76.3431 10.875 75.9231 10.625C75.5131 10.375 75.1881 10.035 74.9481 9.605C74.7081 9.165 74.5881 8.665 74.5881 8.105V0.769999C74.5881 0.599999 74.6381 0.459999 74.7381 0.349999C74.8481 0.24 74.9881 0.185 75.1581 0.185C75.3281 0.185 75.4681 0.24 75.5781 0.349999C75.6881 0.459999 75.7431 0.599999 75.7431 0.769999V8.105C75.7431 8.615 75.8931 9.035 76.1931 9.365C76.4931 9.685 76.8781 9.845 77.3481 9.845H77.7531C77.9131 9.845 78.0431 9.9 78.1431 10.01C78.2431 10.12 78.2931 10.26 78.2931 10.43C78.2931 10.6 78.2331 10.74 78.1131 10.85C77.9931 10.95 77.8431 11 77.6631 11H77.3481ZM73.6131 4.1C73.4631 4.1 73.3381 4.055 73.2381 3.965C73.1381 3.865 73.0881 3.745 73.0881 3.605C73.0881 3.455 73.1381 3.335 73.2381 3.245C73.3381 3.145 73.4631 3.095 73.6131 3.095H77.4381C77.5881 3.095 77.7131 3.145 77.8131 3.245C77.9131 3.335 77.9631 3.455 77.9631 3.605C77.9631 3.745 77.9131 3.865 77.8131 3.965C77.7131 4.055 77.5881 4.1 77.4381 4.1H73.6131ZM83.8932 11.075C83.0832 11.075 82.3632 10.9 81.7332 10.55C81.1132 10.19 80.6232 9.695 80.2632 9.065C79.9132 8.435 79.7382 7.715 79.7382 6.905C79.7382 6.085 79.9032 5.365 80.2332 4.745C80.5732 4.115 81.0382 3.62 81.6282 3.26C82.2182 2.9 82.8982 2.72 83.6682 2.72C84.4282 2.72 85.0882 2.895 85.6482 3.245C86.2182 3.585 86.6582 4.06 86.9682 4.67C87.2782 5.28 87.4332 5.975 87.4332 6.755C87.4332 6.915 87.3832 7.045 87.2832 7.145C87.1832 7.235 87.0532 7.28 86.8932 7.28H80.5182V6.32H87.0132L86.3682 6.785C86.3782 6.205 86.2732 5.685 86.0532 5.225C85.8332 4.765 85.5182 4.405 85.1082 4.145C84.7082 3.885 84.2282 3.755 83.6682 3.755C83.0982 3.755 82.5982 3.89 82.1682 4.16C81.7382 4.43 81.4032 4.805 81.1632 5.285C80.9332 5.755 80.8182 6.295 80.8182 6.905C80.8182 7.515 80.9482 8.055 81.2082 8.525C81.4782 8.995 81.8432 9.365 82.3032 9.635C82.7632 9.905 83.2932 10.04 83.8932 10.04C84.2532 10.04 84.6132 9.98 84.9732 9.86C85.3432 9.73 85.6382 9.57 85.8582 9.38C85.9682 9.29 86.0932 9.245 86.2332 9.245C86.3732 9.235 86.4932 9.27 86.5932 9.35C86.7232 9.47 86.7882 9.6 86.7882 9.74C86.7982 9.88 86.7432 10 86.6232 10.1C86.2932 10.38 85.8732 10.615 85.3632 10.805C84.8532 10.985 84.3632 11.075 83.8932 11.075ZM100.472 11C100.302 11 100.162 10.95 100.052 10.85C99.9421 10.74 99.8871 10.6 99.8871 10.43V6.11C99.8871 5.4 99.7021 4.84 99.3321 4.43C98.9621 4.01 98.4871 3.8 97.9071 3.8C97.2871 3.8 96.7771 4.01 96.3771 4.43C95.9871 4.84 95.7971 5.39 95.8071 6.08H94.7721C94.7821 5.41 94.9271 4.82 95.2071 4.31C95.4871 3.8 95.8721 3.405 96.3621 3.125C96.8521 2.845 97.4071 2.705 98.0271 2.705C98.6171 2.705 99.1371 2.845 99.5871 3.125C100.047 3.405 100.402 3.8 100.652 4.31C100.912 4.82 101.042 5.42 101.042 6.11V10.43C101.042 10.6 100.987 10.74 100.877 10.85C100.777 10.95 100.642 11 100.472 11ZM89.9721 11C89.7921 11 89.6471 10.95 89.5371 10.85C89.4371 10.74 89.3871 10.6 89.3871 10.43V3.38C89.3871 3.21 89.4371 3.07 89.5371 2.96C89.6471 2.85 89.7921 2.795 89.9721 2.795C90.1421 2.795 90.2771 2.85 90.3771 2.96C90.4871 3.07 90.5421 3.21 90.5421 3.38V10.43C90.5421 10.6 90.4871 10.74 90.3771 10.85C90.2771 10.95 90.1421 11 89.9721 11ZM95.2371 11C95.0671 11 94.9271 10.95 94.8171 10.85C94.7071 10.74 94.6521 10.6 94.6521 10.43V6.11C94.6521 5.4 94.4671 4.84 94.0971 4.43C93.7271 4.01 93.2521 3.8 92.6721 3.8C92.0521 3.8 91.5421 4.005 91.1421 4.415C90.7421 4.815 90.5421 5.34 90.5421 5.99H89.7171C89.7371 5.35 89.8771 4.785 90.1371 4.295C90.4071 3.795 90.7721 3.405 91.2321 3.125C91.6921 2.845 92.2121 2.705 92.7921 2.705C93.3821 2.705 93.9021 2.845 94.3521 3.125C94.8121 3.405 95.1671 3.8 95.4171 4.31C95.6771 4.82 95.8071 5.42 95.8071 6.11V10.43C95.8071 10.6 95.7521 10.74 95.6421 10.85C95.5421 10.95 95.4071 11 95.2371 11ZM106.461 11.075C105.871 11.075 105.286 10.975 104.706 10.775C104.126 10.575 103.656 10.275 103.296 9.875C103.186 9.755 103.141 9.62 103.161 9.47C103.181 9.32 103.256 9.19 103.386 9.08C103.526 8.98 103.671 8.94 103.821 8.96C103.971 8.98 104.096 9.045 104.196 9.155C104.436 9.435 104.751 9.65 105.141 9.8C105.541 9.95 105.981 10.025 106.461 10.025C107.201 10.025 107.736 9.9 108.066 9.65C108.396 9.39 108.566 9.08 108.576 8.72C108.576 8.36 108.406 8.065 108.066 7.835C107.726 7.595 107.166 7.41 106.386 7.28C105.376 7.12 104.636 6.84 104.166 6.44C103.696 6.04 103.461 5.565 103.461 5.015C103.461 4.505 103.596 4.08 103.866 3.74C104.136 3.4 104.496 3.145 104.946 2.975C105.396 2.805 105.891 2.72 106.431 2.72C107.101 2.72 107.676 2.835 108.156 3.065C108.646 3.295 109.041 3.605 109.341 3.995C109.441 4.125 109.481 4.26 109.461 4.4C109.441 4.54 109.361 4.655 109.221 4.745C109.101 4.815 108.961 4.84 108.801 4.82C108.651 4.79 108.521 4.715 108.411 4.595C108.161 4.305 107.871 4.095 107.541 3.965C107.211 3.825 106.831 3.755 106.401 3.755C105.851 3.755 105.411 3.87 105.081 4.1C104.751 4.32 104.586 4.6 104.586 4.94C104.586 5.17 104.646 5.37 104.766 5.54C104.896 5.71 105.111 5.86 105.411 5.99C105.721 6.12 106.151 6.23 106.701 6.32C107.451 6.44 108.041 6.62 108.471 6.86C108.911 7.09 109.221 7.365 109.401 7.685C109.591 7.995 109.686 8.335 109.686 8.705C109.686 9.175 109.546 9.59 109.266 9.95C108.996 10.3 108.616 10.575 108.126 10.775C107.646 10.975 107.091 11.075 106.461 11.075Z" fill="white"/>
</g>
<defs>
<clipPath id="clip0_2_13">
<rect width="134" height="17.692" fill="white"/>
</clipPath>
</defs>
</svg>
